<svg xmlns="http://www.w3.org/2000/svg" viewBox="0 0 385.17 325.75"><defs><style>.cls-1{fill:#fff;}</style></defs><title>logo_acalma</title><g id="Layer_2" data-name="Layer 2"><g id="Layer_1-2" data-name="Layer 1"><path class="cls-1" d="M222.07,193.53A62.92,62.92,0,0,0,246,172c12.72-19.6,11.79-44.17.22-64.11-11.17-19.28-32.4-32.33-55-31.06-21.86,1.23-43.58,13.77-55.11,32.43-18.29,28.45-9.66,67,13.6,91.36,50.28,52.67,143.1,34.43,189-11.67,31.58-31.7,43.38-71.69,43-88.61,1.4,1.09,12.56,46.6-15.12,99.13-15.52,29.44-42.95,51.37-73.3,65.24C226.86,295.06,138,280,102.27,211.07c-17-32.77-18.69-74.36,1.37-106.16,18.94-30,56.3-49.75,92.07-44.16,36.56,5.45,64.44,39.06,64.13,75.89-.16,17.67-8.25,34.58-21.24,46.43C231.84,189.23,220.4,194.39,222.07,193.53Z"/><path class="cls-1" d="M205.09,200.43c.27.92,15-2.86,15.79-3.09A83.47,83.47,0,0,0,274.33,150c14.43-34,5.93-75.21-15.93-104C235.28,15.43,198.89-1.32,160.73.08c-35.17,1.29-75.43,19-89.5,53.53-1.42,3.47-4.72,12,.12,14.31,4.49,2.15,11.54-1.84,15.49-3.57,13.56-5.93,26.9-12.14,41.27-16,31.76-8.47,67.94-7.25,95.76,11.83,25.9,17.77,42.82,50.16,38.48,81.88a68.51,68.51,0,0,1-22.16,41.39,69.23,69.23,0,0,1-19.28,12.23c-1.42.6-15.71,5.35-15.82,4.72C205.06,200.34,205.08,200.39,205.09,200.43Z"/><path class="cls-1" d="M202.91,56c1-2.42-31.08-6.86-34.52-6.93a116.53,116.53,0,0,0-52,11.34C82.56,76.54,57.93,108,49,144.18c-9.44,38.15-4.15,81,14.3,115.65,7,13.2,16,25.57,27.22,35.56,8.87,7.93,23.91,19.75,37,17,14.15-2.94,3.44-16.28-1.7-23.05-8.91-11.72-18-23.24-25.54-35.91C82,222.84,72.36,187,76.57,151.34A111.81,111.81,0,0,1,123,73.1a107.45,107.45,0,0,1,43.22-17.8,100.43,100.43,0,0,1,20.19-1.48c1.41,0,16.48,1,16.48,2.21C202.85,56.17,202.91,56.05,202.91,56Z"/><path class="cls-1" d="M113.39,254.53c-1.32.66,20.46,27,22.81,29.36a144.07,144.07,0,0,0,46.15,30.66c35.69,14.75,77.17,14.61,113.32,1.5,16.34-5.93,31.78-14.62,44.1-27,7.84-7.87,21.76-23.57,16-35.69-5-10.35-15-2.89-32,10.52-17.63,13.92-41.45,23.05-60.91,27.2-29.32,6.25-60.61.22-89.83-7.09a156.55,156.55,0,0,1-37-14.41c-2.32-1.26-23.39-13.11-22.61-15C113.45,254.5,113.42,254.46,113.39,254.53Z"/><path class="cls-1" d="M230.79,200.57c.33,1.14,44.65-6.95,69.35-40.45,18.28-24.8,23.7-53.64,18-88.6-2.24-13.68-6.74-27.08-14.63-38.57-5-7.32-15.25-20.55-25.6-17.8-8.86,2.35-4.49,11.32,3.5,26.62,8.3,15.89,11.93,35.91,12.3,51.78.55,23.91-2.85,49.15-15.54,69.56C263.53,186.61,230.75,200.55,230.79,200.57Z"/><path class="cls-1" d="M56.22,97.79c-14.93,10.76-45.74,23.48-53.86,70.37-6.41,37,0,71.07,22.69,102,2.5,3.41,9.35,11.13,14.48,9.92,3.91-.89,2.73-8.39,2.48-11-1.82-19.24-6.28-38.12-7.73-57.46-2.76-37.06,1.48-75.43,19.09-108.63.12-.23,2.86-5.15,2.85-5.15C56.32,98,56.28,97.82,56.22,97.79Z"/></g></g></svg>